<?xml version="1.0" encoding="UTF-8" standalone="no"?>
<svg
   xmlns:dc="http://purl.org/dc/elements/1.1/"
   xmlns:cc="http://creativecommons.org/ns#"
   xmlns:rdf="http://www.w3.org/1999/02/22-rdf-syntax-ns#"
   xmlns:svg="http://www.w3.org/2000/svg"
   xmlns="http://www.w3.org/2000/svg"
   id="svg5"
   version="1.1"
   viewBox="0 0 25.4 6.0854165"
   height="23"
   width="96"
   >
  <metadata
     id="metadata1051">
    <rdf:RDF>
      <cc:Work
         rdf:about="">
        <dc:format>image/svg+xml</dc:format>
        <dc:type
           rdf:resource="http://purl.org/dc/dcmitype/StillImage" />
        <dc:title></dc:title>
      </cc:Work>
    </rdf:RDF>
  </metadata>
  <defs
     id="defs2" />
  <g
     transform="translate(0,-43.656252)"
     style="display:inline;opacity:1"
     id="layer2"
     >
    <path
       d="m 16.51487,44.35758 c -0.03512,-3.62e-4 -0.06942,1.58e-4 -0.106022,0.0012 -0.0732,0.002 -0.155569,0.006 -0.240559,0.01742 -0.08499,0.0114 -0.172607,0.03024 -0.256533,0.0528 -0.08393,0.02256 -0.164169,0.04886 -0.257657,0.08935 -0.09349,0.04049 -0.200221,0.09516 -0.283172,0.141451 -0.08295,0.0463 -0.142104,0.08419 -0.200145,0.124943 -0.05804,0.04075 -0.114967,0.0844 -0.167019,0.127195 -0.05205,0.04279 -0.09923,0.08476 -0.146758,0.134162 -0.04752,0.04941 -0.09538,0.106262 -0.144399,0.16509 -0.04902,0.05883 -0.09919,0.119622 -0.150618,0.195588 -0.05143,0.07597 -0.104107,0.167059 -0.147884,0.252512 -0.04378,0.08545 -0.07863,0.165251 -0.106879,0.237665 -0.02825,0.07241 -0.04987,0.137448 -0.0678,0.206791 -0.01793,0.06935 -0.03218,0.143004 -0.04524,0.249832 -0.01306,0.106827 -0.02491,0.246831 -0.02117,0.404094 0.0037,0.157264 0.02306,0.331773 0.05178,0.474633 0.02871,0.142861 0.06677,0.254024 0.114865,0.365288 0.04809,0.111264 0.10621,0.222605 0.180581,0.337201 0.07437,0.114595 0.164985,0.23246 0.270522,0.34642 0.105536,0.11396 0.22601,0.224011 0.334038,0.309114 0.108029,0.0851 0.203645,0.145238 0.314153,0.2032 0.110507,0.05796 0.235856,0.113767 0.355049,0.156353 0.119193,0.04258 0.232215,0.07195 0.376169,0.08984 0.143954,0.01789 0.318866,0.02433 0.487872,0.01667 0.169007,-0.0076 0.332116,-0.02938 0.474097,-0.05553 0.141981,-0.02615 0.262812,-0.0567 0.382011,-0.0953 0.119199,-0.0386 0.236746,-0.08525 0.336022,-0.136574 0.09928,-0.05132 0.180301,-0.107328 0.260767,-0.166215 0.08047,-0.05889 0.160355,-0.120653 0.225337,-0.173076 0.06498,-0.05242 0.115038,-0.09552 0.165089,-0.138611 l -0.642456,-0.827914 c -0.03403,0.04093 -0.06808,0.08184 -0.127355,0.136306 -0.05928,0.05446 -0.143792,0.122464 -0.247152,0.18519 -0.103361,0.06273 -0.225565,0.120209 -0.331037,0.158336 -0.105471,0.03813 -0.194212,0.0569 -0.278615,0.06716 -0.0844,0.01026 -0.164445,0.01201 -0.204487,0.01286 -0.04004,8.94e-4 -0.04004,8.94e-4 -0.0923,-0.0046 -0.05226,-0.0055 -0.156807,-0.01657 -0.251868,-0.03554 -0.09506,-0.01897 -0.180643,-0.04587 -0.257015,-0.07987 -0.07637,-0.03399 -0.143566,-0.0751 -0.205827,-0.124139 -0.06226,-0.04904 -0.119568,-0.106046 -0.168895,-0.164715 -0.04933,-0.05867 -0.09064,-0.118962 -0.124836,-0.174951 -0.03419,-0.05599 -0.06125,-0.107662 -0.07917,-0.161821 -0.01791,-0.05416 -0.02669,-0.110836 -0.03543,-0.167501 h 3.286463 c 0.0054,-0.107064 0.01067,-0.21414 0.01474,-0.304827 0.0041,-0.09069 0.0069,-0.164988 0.008,-0.231018 0.0011,-0.06603 3.16e-4,-0.123782 -0.0043,-0.191568 -0.0046,-0.06779 -0.01328,-0.145579 -0.02814,-0.225444 -0.01486,-0.07987 -0.03602,-0.161771 -0.06004,-0.241417 -0.02402,-0.07964 -0.05089,-0.157022 -0.08689,-0.239326 -0.036,-0.0823 -0.08112,-0.169578 -0.12773,-0.247957 -0.0466,-0.07838 -0.0947,-0.147901 -0.154209,-0.221799 -0.05951,-0.0739 -0.130439,-0.15215 -0.190603,-0.213759 -0.06017,-0.06161 -0.109552,-0.106527 -0.16584,-0.150671 -0.05629,-0.04414 -0.119468,-0.08751 -0.182082,-0.126551 -0.06261,-0.03904 -0.124675,-0.07379 -0.197036,-0.109184 -0.07236,-0.03539 -0.154996,-0.07142 -0.231125,-0.0997 -0.07613,-0.02828 -0.145744,-0.04879 -0.217939,-0.06732 -0.0722,-0.01853 -0.146995,-0.03504 -0.232091,-0.04851 -0.0851,-0.01347 -0.180504,-0.0239 -0.260231,-0.02905 -0.03986,-0.0026 -0.07577,-0.0038 -0.110899,-0.0041 z m -0.0099,1.058611 c 0.0024,1e-5 0.0065,4.1e-5 0.0092,5.4e-5 0.0027,1.1e-5 0.0026,2.3e-5 0.02246,6.98e-4 0.01982,6.72e-4 0.05948,0.002 0.100716,0.005 0.04123,0.0028 0.08403,0.0072 0.138503,0.02176 0.05448,0.01454 0.12063,0.03928 0.182671,0.07005 0.06204,0.03077 0.119952,0.06755 0.171843,0.104307 0.05189,0.03676 0.09772,0.07347 0.141076,0.116635 0.04335,0.04317 0.08426,0.0928 0.117869,0.141559 0.03361,0.04876 0.05996,0.09665 0.08105,0.144507 0.02108,0.04786 0.03689,0.09566 0.04712,0.138129 0.01021,0.04247 0.01479,0.07956 0.0194,0.116688 h -2.081363 c 0.01743,-0.06294 0.03491,-0.125878 0.05917,-0.184332 0.02427,-0.05845 0.05536,-0.112379 0.09091,-0.16509 0.03555,-0.05272 0.07555,-0.104203 0.126873,-0.158014 0.05133,-0.05381 0.114006,-0.109934 0.183903,-0.159569 0.0699,-0.04964 0.146983,-0.09276 0.220781,-0.122155 0.0738,-0.02939 0.14428,-0.04505 0.204647,-0.05446 0.06037,-0.0094 0.110593,-0.01253 0.135716,-0.0141 0.02512,-0.0015 0.02512,-0.0016 0.02749,-0.0016 z"
       style="display:inline;fill:#000000;stroke:#000000;stroke-width:0.02744345px;stroke-linecap:butt;stroke-linejoin:miter;stroke-opacity:1"
       id="path19589" />
    <path
       transform="matrix(0.10372337,0,0,0.10372337,0.18471526,44.105551)"
       id="path23342"
       d="m 12.757888,25.562755 c 0.04135,0.526549 0.124035,1.579369 0.383164,2.637732 0.25913,1.058363 0.694582,2.122192 1.119069,2.921445 0.424488,0.799253 0.837893,1.333921 1.317474,1.879617 0.479582,0.545695 1.025271,1.102408 1.609582,1.623292 0.584311,0.520884 1.207171,1.005944 1.934795,1.427581 0.727624,0.421637 1.559946,0.779921 2.361963,1.033443 0.802018,0.253522 1.573703,0.402349 2.381224,0.479485 0.80752,0.07714 1.650862,0.08264 2.552092,0.04128 0.901231,-0.04136 1.860329,-0.129552 2.711927,-0.292177 0.851598,-0.162626 1.595724,-0.399645 2.400468,-0.760694 0.804745,-0.36105 1.670136,-0.846111 2.389452,-1.309125 0.719317,-0.463014 1.292568,-0.903974 1.755571,-1.311859 0.463003,-0.407884 0.815775,-0.782704 1.094137,-1.083116 0.278363,-0.300413 0.482321,-0.526422 0.686271,-0.752422 0,0 6.829557,7.42487 6.829557,7.42487 -0.181901,0.214977 -0.363823,0.429978 -0.810302,0.892993 -0.446479,0.463014 -1.157537,1.174071 -1.926473,1.860325 -0.768936,0.686254 -1.595745,1.3477 -2.378452,1.893396 -0.782707,0.545695 -1.521319,0.975636 -2.331594,1.380781 -0.810275,0.405145 -1.692202,0.785474 -2.620984,1.110696 -0.928781,0.325222 -1.904413,0.595313 -2.874544,0.813051 -0.970131,0.217738 -1.934738,0.383098 -2.893846,0.498864 -0.959108,0.115765 -1.912692,0.18191 -3.028901,0.187438 -1.116209,0.0055 -2.395001,-0.04959 -3.654525,-0.212176 C 20.50549,47.78489 19.265281,47.514799 18.044333,47.139997 16.823385,46.765196 15.621759,46.285649 14.555146,45.784062 13.488534,45.282475 12.556997,44.758828 11.650232,44.166289 10.743466,43.573749 9.8615364,42.912304 9.0512243,42.201252 8.2409122,41.4902 7.5022997,40.729539 6.8022349,39.927526 6.1021701,39.125512 5.4407217,38.282164 4.9060204,37.532513 4.3713191,36.782861 3.9634295,36.12693 3.6161362,35.47925 3.268843,34.83157 2.9822193,34.192178 2.6983244,33.470078 2.4144296,32.747978 2.1333147,31.943218 1.8907587,31.105359 1.6482026,30.2675 1.4442554,29.39659 1.2954036,28.440213 1.1465518,27.483837 1.0528466,26.442056 1.0390476,25.270694 1.0252485,24.099331 1.0913926,22.798491 1.2622553,21.607818 1.433118,20.417146 1.7087205,19.336786 2.0559867,18.259128 2.4032528,17.181471 2.8221686,16.106621 3.3044908,15.106126 3.786813,14.105632 4.332503,13.17961 4.9305919,12.330702 5.5286808,11.481794 6.1790997,10.710113 6.7634,10.04864 7.3477004,9.3871675 7.8658346,8.8359596 8.5328308,8.2240889 9.199827,7.6122183 10.01561,6.9397505 10.809384,6.3444256 11.603157,5.7491006 12.374841,5.2309687 13.165871,4.7817163 13.9569,4.332464 14.767169,3.9521321 15.627096,3.607619 16.487023,3.2631058 17.396509,2.9544324 18.228869,2.7091441 19.061228,2.4638557 19.816379,2.281959 20.66528,2.1358957 c 0.848901,-0.1460632 1.79146,-0.2563043 2.57145,-0.3196828 0.77999,-0.063379 1.397337,-0.079911 2.003687,-0.079904 0.60635,7.4e-6 1.20165,0.01654 1.956829,0.066159 0.755179,0.049618 1.670184,0.1323004 2.695469,0.3280147 1.025285,0.1957143 2.160764,0.5043876 3.163987,0.82687 1.003224,0.3224824 1.874129,0.6587167 2.648592,1.0087654 0.774463,0.3500486 1.452442,0.7138431 2.149731,1.1438172 0.697289,0.4299741 1.413853,0.9260567 2.056017,1.4028745 0.642165,0.4768177 1.209904,0.9343181 1.692209,1.3642878 0.482305,0.4299698 0.879168,0.832344 1.256748,1.2319836 0.37758,0.3996396 0.735616,0.7962312 1.093906,1.1931045 0,0 -7.193359,7.52409 -7.193359,7.52409 -0.23151,-0.25907 -0.462774,-0.517864 -0.826569,-0.881681 -0.363795,-0.363816 -0.859877,-0.832338 -1.366989,-1.262308 -0.507113,-0.42997 -1.025244,-0.821324 -1.557161,-1.15209 -0.531918,-0.330766 -1.077609,-0.600857 -1.612292,-0.843407 -0.534683,-0.24255 -1.058327,-0.457519 -1.56821,-0.628423 -0.509884,-0.170904 -1.005966,-0.297681 -1.584764,-0.391415 -0.578797,-0.09373 -1.240239,-0.154366 -1.874149,-0.195708 -0.633911,-0.04134 -1.240235,-0.06337 -1.841085,-0.04409 -0.600849,0.01928 -1.19615,0.07992 -1.785982,0.187392 -0.589832,0.107475 -1.174109,0.261813 -1.744655,0.465761 -0.570546,0.203948 -1.127261,0.457499 -1.664732,0.760678 -0.53747,0.303179 -1.055601,0.655951 -1.554474,1.039061 -0.498873,0.38311 -0.978425,0.796515 -1.369809,1.176875 -0.391384,0.380359 -0.694546,0.72762 -1.008755,1.154839 -0.314208,0.42722 -0.63942,0.934329 -0.93157,1.427683 -0.29215,0.493354 -0.551217,0.972903 -0.782729,1.554481 -0.231512,0.581579 -0.435456,1.265069 -0.587037,1.857651 -0.151581,0.592582 -0.250797,1.094172 -0.305901,1.576519 -0.0551,0.482347 -0.06613,0.945357 -0.07164,1.17674 -0.0055,0.231383 -0.0055,0.231373 0.03584,0.757923 z"
       style="display:inline;fill:#000000;stroke:#000000;stroke-width:0.26458299px;stroke-linecap:butt;stroke-linejoin:miter;stroke-opacity:1" 
       />
    <path
       d="m 9.81566,44.393707 v 5.4e-5 l -0.00179,4.569446 1.557472,8.94e-4 c 0.108651,-0.0027 0.217339,-0.0054 0.326587,-0.01141 0.109248,-0.0061 0.219089,-0.01562 0.311795,-0.02696 0.0927,-0.01134 0.168279,-0.02449 0.253048,-0.04561 0.08477,-0.02112 0.178703,-0.05022 0.27331,-0.08785 0.09461,-0.03764 0.189876,-0.08381 0.281724,-0.13518 0.09185,-0.05138 0.18028,-0.107939 0.248653,-0.154906 0.06837,-0.04697 0.11669,-0.08433 0.178865,-0.143918 0.06217,-0.05959 0.138204,-0.1414 0.206253,-0.223246 0.06805,-0.08185 0.128124,-0.163747 0.183046,-0.248546 0.05493,-0.0848 0.104696,-0.172467 0.14708,-0.263071 0.04239,-0.0906 0.07734,-0.184125 0.106022,-0.277114 0.02868,-0.09299 0.05109,-0.185466 0.06732,-0.296841 0.01623,-0.111374 0.02632,-0.241653 0.02728,-0.376008 9.75e-4,-0.134354 -0.0072,-0.272758 -0.02632,-0.400396 -0.01909,-0.127637 -0.04916,-0.244527 -0.08839,-0.355156 -0.03923,-0.11063 -0.08764,-0.215011 -0.14692,-0.320639 -0.05928,-0.105627 -0.129407,-0.21246 -0.197947,-0.302146 -0.06854,-0.08969 -0.135469,-0.162189 -0.213276,-0.23536 -0.0778,-0.07317 -0.166468,-0.146992 -0.263179,-0.215152 -0.09671,-0.06816 -0.201499,-0.130651 -0.307451,-0.185727 -0.105955,-0.05508 -0.213099,-0.10273 -0.312921,-0.136038 -0.09982,-0.0333 -0.1923,-0.05228 -0.284243,-0.0678 -0.09194,-0.01552 -0.183314,-0.02762 -0.281028,-0.03575 -0.09771,-0.0081 -0.212216,-0.01272 -0.51494,-0.01592 -0.302724,-0.0032 -1.307382,-0.0084 -1.4081403,-0.0089 -0.100759,-5.27e-4 -0.1113572,-6.27e-4 -0.1219417,-6.96e-4 z m 1.465224,1.115748 c 0.07812,5.8e-5 0.152594,7.18e-4 0.219763,0.0026 0.134338,0.0038 0.2395,0.01259 0.32573,0.0275 0.08623,0.01491 0.153526,0.036 0.229893,0.07086 0.07637,0.03486 0.161773,0.08345 0.241363,0.146919 0.07959,0.06346 0.153363,0.14179 0.212847,0.218261 0.05948,0.07647 0.104693,0.151084 0.138933,0.23938 0.03424,0.0883 0.05757,0.190224 0.07054,0.294375 0.01298,0.10415 0.01562,0.210528 0.0051,0.315653 -0.01047,0.105125 -0.03405,0.209011 -0.07193,0.308793 -0.03788,0.09978 -0.09004,0.195465 -0.165035,0.288692 -0.07499,0.09323 -0.172819,0.183997 -0.278509,0.252995 -0.10569,0.069 -0.219253,0.116243 -0.33495,0.14515 -0.115696,0.02891 -0.233548,0.03947 -0.351405,0.05007 l -0.487175,0.0034 0.0032,-2.363569 v -5.5e-5 c 0.08177,-5.6e-4 0.163509,-0.0011 0.241631,-0.0011 z"
       style="display:inline;fill:#000000;stroke:#000000;stroke-width:0.02744345px;stroke-linecap:butt;stroke-linejoin:miter;stroke-opacity:1"
       id="path24383" />
    <path
       d="m 21.344975,44.35758 c -0.03512,-3.62e-4 -0.06948,1.58e-4 -0.106076,0.0012 -0.0732,0.002 -0.155568,0.006 -0.240558,0.01742 -0.08499,0.0114 -0.172553,0.03024 -0.256479,0.0528 -0.08393,0.02256 -0.164169,0.04886 -0.257658,0.08935 -0.09349,0.04049 -0.20022,0.09516 -0.283172,0.141451 -0.08295,0.0463 -0.142104,0.08419 -0.200144,0.124943 -0.05804,0.04075 -0.114969,0.0844 -0.167019,0.127195 -0.05205,0.04279 -0.09923,0.08476 -0.146759,0.134162 -0.04752,0.04941 -0.09538,0.106262 -0.144399,0.16509 -0.04902,0.05883 -0.09919,0.119622 -0.150618,0.195588 -0.05143,0.07597 -0.104106,0.167059 -0.147884,0.252512 -0.04378,0.08545 -0.07869,0.165251 -0.106933,0.237665 -0.02825,0.07241 -0.04987,0.137448 -0.0678,0.206791 -0.01793,0.06935 -0.03218,0.143004 -0.04524,0.249832 -0.01306,0.106827 -0.02491,0.246831 -0.02117,0.404094 0.0037,0.157264 0.02312,0.331773 0.05183,0.474633 0.02871,0.142861 0.06677,0.254023 0.114866,0.365288 0.04809,0.111265 0.106209,0.222605 0.18058,0.337201 0.07437,0.114595 0.164986,0.232461 0.270522,0.34642 0.105536,0.113959 0.225957,0.224011 0.333985,0.309114 0.108028,0.0851 0.203644,0.145238 0.314153,0.2032 0.110508,0.05796 0.23591,0.113766 0.355103,0.156353 0.119193,0.04258 0.232161,0.07195 0.376116,0.08984 0.143953,0.01789 0.318864,0.02433 0.487871,0.01667 0.169007,-0.0076 0.332117,-0.02938 0.474097,-0.05553 0.141981,-0.02615 0.262866,-0.0567 0.382065,-0.0953 0.119199,-0.0386 0.236745,-0.08525 0.336022,-0.136574 0.09928,-0.05132 0.180247,-0.107327 0.260713,-0.166215 0.08046,-0.05889 0.160408,-0.120653 0.22539,-0.173076 0.06498,-0.05242 0.115039,-0.09552 0.165089,-0.138611 l -0.642456,-0.827914 c -0.03403,0.04093 -0.06808,0.08184 -0.127355,0.136306 -0.05928,0.05446 -0.143791,0.122464 -0.247152,0.18519 -0.10336,0.06273 -0.225565,0.120209 -0.331037,0.158336 -0.105471,0.03813 -0.194211,0.0569 -0.278615,0.06716 -0.08441,0.01026 -0.164498,0.01201 -0.20454,0.01286 -0.04004,8.94e-4 -0.04004,8.94e-4 -0.0923,-0.0046 -0.05226,-0.0055 -0.156808,-0.01657 -0.251869,-0.03554 -0.09506,-0.01897 -0.180641,-0.04587 -0.257015,-0.07987 -0.07637,-0.03399 -0.143512,-0.0751 -0.205772,-0.124139 -0.06226,-0.04904 -0.119622,-0.106045 -0.168949,-0.164715 -0.04933,-0.05867 -0.09064,-0.118962 -0.124835,-0.174951 -0.03419,-0.05599 -0.06125,-0.107662 -0.07917,-0.161821 -0.01792,-0.05416 -0.02668,-0.110836 -0.03543,-0.167501 h 3.286516 c 0.0054,-0.107064 0.01061,-0.21414 0.01469,-0.304827 0.0041,-0.09069 0.0069,-0.164988 0.008,-0.231018 0.0011,-0.06603 3.18e-4,-0.123782 -0.0043,-0.191568 -0.0046,-0.06779 -0.01322,-0.145579 -0.02809,-0.225444 -0.01487,-0.07987 -0.03602,-0.161771 -0.06004,-0.241417 -0.02402,-0.07964 -0.05089,-0.157022 -0.08689,-0.239326 -0.036,-0.0823 -0.08112,-0.169578 -0.12773,-0.247957 -0.0466,-0.07838 -0.0947,-0.147901 -0.154209,-0.221799 -0.05951,-0.0739 -0.130438,-0.15215 -0.190603,-0.213759 -0.06017,-0.06161 -0.109605,-0.106527 -0.165894,-0.150671 -0.05629,-0.04414 -0.119414,-0.08751 -0.182027,-0.126551 -0.06261,-0.03904 -0.124675,-0.07379 -0.197036,-0.109184 -0.07236,-0.03539 -0.155051,-0.07142 -0.231179,-0.0997 -0.07613,-0.02828 -0.14569,-0.04879 -0.217886,-0.06732 -0.0722,-0.01853 -0.146994,-0.03504 -0.23209,-0.04851 -0.0851,-0.01347 -0.180506,-0.0239 -0.260232,-0.02905 -0.03986,-0.0026 -0.07577,-0.0038 -0.110899,-0.0041 z m -0.01099,1.058611 c 0.0012,1e-5 0.0034,4.9e-5 0.0061,5.4e-5 0.0027,4e-6 0.0046,1.2e-5 0.02557,6.98e-4 0.02094,6.85e-4 0.06056,0.002 0.101788,0.005 0.04123,0.0028 0.08408,0.0072 0.138557,0.02176 0.05448,0.01454 0.120577,0.03928 0.182618,0.07005 0.06204,0.03077 0.120006,0.06755 0.171896,0.104307 0.05189,0.03676 0.09772,0.07347 0.141077,0.116635 0.04335,0.04317 0.0842,0.0928 0.117814,0.141559 0.03361,0.04876 0.05996,0.09665 0.08105,0.144507 0.02108,0.04786 0.0369,0.09566 0.04712,0.138129 0.01021,0.04247 0.01485,0.07956 0.01946,0.116688 h -2.081362 c 0.01743,-0.06294 0.03485,-0.125878 0.05912,-0.184332 0.02427,-0.05845 0.05541,-0.112379 0.09096,-0.16509 0.03555,-0.05272 0.07549,-0.104203 0.126818,-0.158014 0.05133,-0.05381 0.114007,-0.109934 0.183904,-0.159569 0.0699,-0.04964 0.147036,-0.09276 0.220834,-0.122155 0.0738,-0.02939 0.144227,-0.04505 0.204593,-0.05446 0.06037,-0.0094 0.110648,-0.01253 0.13577,-0.0141 0.02512,-0.0015 0.02512,-0.0016 0.02637,-0.0016 z"
       style="display:inline;fill:#000000;stroke:#000000;stroke-width:0.02744345px;stroke-linecap:butt;stroke-linejoin:miter;stroke-opacity:1"
       id="path24385" />
    <path
       d="m 7.1079214,44.262386 a 2.5344946,2.4148102 0 0 0 -2.5345013,2.414811 2.5344946,2.4148102 0 0 0 2.5345013,2.414811 2.5344946,2.4148102 0 0 0 2.5345014,-2.414811 2.5344946,2.4148102 0 0 0 -2.5345014,-2.414811 z m 0.00236,1.107548 a 1.2934496,1.3288018 0 0 1 1.2934353,1.32881 1.2934496,1.3288018 0 0 1 -1.2934353,1.328758 1.2934496,1.3288018 0 0 1 -1.2934346,-1.328758 1.2934496,1.3288018 0 0 1 1.2934346,-1.32881 z"
       style="display:inline;fill:#000000;stroke:#000000;stroke-width:0.03196781;stroke-opacity:1"
       id="path6189" />
    <ellipse
       ry="0.70117193"
       rx="0.74689806"
       cy="48.306072"
       cx="24.267525"
       id="path17974"
       style="display:inline;fill:#000000;stroke:#000000;stroke-width:0.02387525;stroke-opacity:1" />
  </g>
</svg>
